<?xml version="1.0" encoding="UTF-8" standalone="no"?>
<svg width="208px" height="634px" viewBox="0 0 208 634" version="1.1" xmlns="http://www.w3.org/2000/svg" xmlns:xlink="http://www.w3.org/1999/xlink" xmlns:sketch="http://www.bohemiancoding.com/sketch/ns">
    <title>fingering</title>
    <description>Created with Sketch (http://www.bohemiancoding.com/sketch)</description>
    <defs></defs>
    <g id="Page-1" stroke="none" stroke-width="1" fill="none" fill-rule="evenodd" sketch:type="MSPage">
        <g id="fingering" sketch:type="MSArtboardGroup" stroke="#000000" stroke-width="2" fill="#FFFFFF">
            <rect id="rpinky3" sketch:type="MSShapeGroup" x="62" y="591" width="91" height="18" rx="8"></rect>
            <rect id="rpinky2" sketch:type="MSShapeGroup" x="70" y="563" width="83" height="18" rx="8"></rect>
            <rect id="rpinky1" sketch:type="MSShapeGroup" x="81" y="536" width="73" height="18" rx="8"></rect>
            <circle id="r3" sketch:type="MSShapeGroup" cx="134" cy="500" r="27"></circle>
            <circle id="r2" sketch:type="MSShapeGroup" cx="134" cy="436" r="27"></circle>
            <circle id="r1" sketch:type="MSShapeGroup" cx="134" cy="373" r="27"></circle>
            <rect id="rside" sketch:type="MSShapeGroup" x="80" y="318" width="73" height="18" rx="8"></rect>
            <rect id="lpinky2" sketch:type="MSShapeGroup" x="116" y="253" width="83" height="18" rx="8"></rect>
            <rect id="lpinky1" sketch:type="MSShapeGroup" x="116" y="226" width="73" height="18" rx="8"></rect>
            <circle id="l3" sketch:type="MSShapeGroup" cx="134" cy="189" r="27"></circle>
            <circle id="l2" sketch:type="MSShapeGroup" cx="134" cy="126" r="27"></circle>
            <rect id="bis" sketch:type="MSShapeGroup" x="98" y="72" width="73" height="18" rx="8"></rect>
            <circle id="l1" sketch:type="MSShapeGroup" cx="134" cy="35" r="27"></circle>
            <rect id="oct8" sketch:type="MSShapeGroup" x="15" y="21" width="37" height="26" rx="8"></rect>
            <rect id="oct7" sketch:type="MSShapeGroup" x="15" y="53" width="37" height="26" rx="8"></rect>
            <rect id="oct6" sketch:type="MSShapeGroup" x="15" y="85" width="37" height="26" rx="8"></rect>
            <rect id="oct5" sketch:type="MSShapeGroup" x="15" y="117" width="37" height="26" rx="8"></rect>
        </g>
    </g>
</svg>