<?xml version="1.0" encoding="UTF-8" standalone="no"?>
<svg width="169px" height="346px" viewBox="0 0 169 346" version="1.1" xmlns="http://www.w3.org/2000/svg" xmlns:xlink="http://www.w3.org/1999/xlink" xmlns:sketch="http://www.bohemiancoding.com/sketch/ns">
    <title>Artboard 1</title>
    <description>Created with Sketch (http://www.bohemiancoding.com/sketch)</description>
    <defs></defs>
    <g id="Page-1" stroke="none" stroke-width="1" fill="none" fill-rule="evenodd" sketch:type="MSPage">
        <g id="Artboard-1" sketch:type="MSArtboardGroup">
            <path d="M71.2199128,17 L108.41342,17" id="high-staff-8" stroke="#000000" stroke-width="2" stroke-linecap="square" sketch:type="MSShapeGroup"></path>
            <path d="M71.2199128,32 L108.41342,32" id="high-staff-7" stroke="#000000" stroke-width="2" stroke-linecap="square" sketch:type="MSShapeGroup"></path>
            <path d="M71.2199128,47 L108.41342,47" id="high-staff-6" stroke="#000000" stroke-width="2" stroke-linecap="square" sketch:type="MSShapeGroup"></path>
            <path d="M71.2199128,62 L108.41342,62" id="high-staff-5" stroke="#000000" stroke-width="2" stroke-linecap="square" sketch:type="MSShapeGroup"></path>
            <path d="M71.2199128,77 L108.41342,77" id="high-staff-4" stroke="#000000" stroke-width="2" stroke-linecap="square" sketch:type="MSShapeGroup"></path>
            <path d="M71.2199128,92 L108.41342,92" id="high-staff-3" stroke="#000000" stroke-width="2" stroke-linecap="square" sketch:type="MSShapeGroup"></path>
            <path d="M71.2199128,107 L108.41342,107" id="high-staff-2" stroke="#000000" stroke-width="2" stroke-linecap="square" sketch:type="MSShapeGroup"></path>
            <path d="M71.2199128,122 L108.41342,122" id="high-staff-1" stroke="#000000" stroke-width="2" stroke-linecap="square" sketch:type="MSShapeGroup"></path>
            <path d="M71.2199128,330 L108.41342,330" id="low-staff-9" stroke="#000000" stroke-width="2" stroke-linecap="square" sketch:type="MSShapeGroup"></path>
            <path d="M71.2199128,315 L108.41342,315" id="low-staff-8" stroke="#000000" stroke-width="2" stroke-linecap="square" sketch:type="MSShapeGroup"></path>
            <path d="M71.2199128,300 L108.41342,300" id="low-staff-7" stroke="#000000" stroke-width="2" stroke-linecap="square" sketch:type="MSShapeGroup"></path>
            <path d="M71.2199128,285 L108.41342,285" id="low-staff-6" stroke="#000000" stroke-width="2" stroke-linecap="square" sketch:type="MSShapeGroup"></path>
            <path d="M71.2199128,270 L108.41342,270" id="low-staff-5" stroke="#000000" stroke-width="2" stroke-linecap="square" sketch:type="MSShapeGroup"></path>
            <path d="M71.2199128,255 L108.41342,255" id="low-staff-4" stroke="#000000" stroke-width="2" stroke-linecap="square" sketch:type="MSShapeGroup"></path>
            <path d="M71.2199128,240 L108.41342,240" id="low-staff-3" stroke="#000000" stroke-width="2" stroke-linecap="square" sketch:type="MSShapeGroup"></path>
            <path d="M71.2199128,225 L108.41342,225" id="low-staff-2" stroke="#000000" stroke-width="2" stroke-linecap="square" sketch:type="MSShapeGroup"></path>
            <path d="M71.2199128,210 L108.41342,210" id="low-staff-1" stroke="#000000" stroke-width="2" stroke-linecap="square" sketch:type="MSShapeGroup"></path>
            <path d="M13.1885246,195 L154.717799,195" id="staff-5" stroke="#000000" stroke-width="2" stroke-linecap="square" sketch:type="MSShapeGroup"></path>
            <path d="M13.1885246,181 L154.717799,181" id="staff-4" stroke="#000000" stroke-width="2" stroke-linecap="square" sketch:type="MSShapeGroup"></path>
            <path d="M13.1885246,166 L154.717799,166" id="staff-3" stroke="#000000" stroke-width="2" stroke-linecap="square" sketch:type="MSShapeGroup"></path>
            <path d="M13.1885246,151 L154.717799,151" id="staff-2" stroke="#000000" stroke-width="2" stroke-linecap="square" sketch:type="MSShapeGroup"></path>
            <path d="M13.1885246,137 L154.717799,137" id="staff-1" stroke="#000000" stroke-width="2" stroke-linecap="square" sketch:type="MSShapeGroup"></path>
            <path d="M89,217 C94.5228478,217 99,213.865993 99,210 C99,206.134007 94.5228478,203 89,203 C83.4771522,203 79,206.134007 79,210 C79,213.865993 83.4771522,217 89,217 Z" id="middle-c" fill="#000000" sketch:type="MSShapeGroup" transform="translate(89.000000, 210.000000) rotate(-25.000000) translate(-89.000000, -210.000000) "></path>
            <path d="M66.8233438,192.050169 L66.8233438,199.475254 L69,197.995254 L68.9810726,201.35661 L66.8233438,202.83661 L66.8611987,213.046102 L69,211.616271 L69,215.052881 L66.8422713,216.507797 L66.8801262,223.757288 L65.8012618,223.757288 L65.7823344,217.235254 L60.2176656,220.947797 L60.2555205,228.974915 L59.2334385,229 L59.214511,221.625085 L57.0189274,223.08 L57.0189274,219.668475 L59.2334385,218.16339 L59.1955836,207.953898 L57,209.433898 L57,206.047458 L59.1955836,204.567458 L59.1766562,197.217627 L60.2176656,197.217627 L60.2365931,203.84 L65.7823344,200.227797 L65.7634069,192 L66.8233438,192.050169 Z M66,204 L60,207.740072 L60.0408163,218 L66,214.285199 L66,204 Z" id="middle-c-sharp" fill="#000000" sketch:type="MSShapeGroup"></path>
            <path d="M89,166 C94.5228478,166 99,162.865993 99,159 C99,155.134007 94.5228478,152 89,152 C83.4771522,152 79,155.134007 79,159 C79,162.865993 83.4771522,166 89,166 Z" id="high-c" fill="#000000" sketch:type="MSShapeGroup" transform="translate(89.000000, 159.000000) rotate(-25.000000) translate(-89.000000, -159.000000) "></path>
            <path d="M66.8233438,141.050169 L66.8233438,148.475254 L69,146.995254 L68.9810726,150.35661 L66.8233438,151.83661 L66.8611987,162.046102 L69,160.616271 L69,164.052881 L66.8422713,165.507797 L66.8801262,172.757288 L65.8012618,172.757288 L65.7823344,166.235254 L60.2176656,169.947797 L60.2555205,177.974915 L59.2334385,178 L59.214511,170.625085 L57.0189274,172.08 L57.0189274,168.668475 L59.2334385,167.16339 L59.1955836,156.953898 L57,158.433898 L57,155.047458 L59.1955836,153.567458 L59.1766562,146.217627 L60.2176656,146.217627 L60.2365931,152.84 L65.7823344,149.227797 L65.7634069,141 L66.8233438,141.050169 Z M66,153 L60,156.740072 L60.0408163,167 L66,163.285199 L66,153 Z" id="high-c-sharp" fill="#000000" sketch:type="MSShapeGroup"></path>
            <path d="M41.9460253,192.924924 C41.9639752,193.023273 41.9819668,193.121529 42,193.219692 C40.6060879,193.799924 39.1723713,194.056561 37.6988071,193.989611 C36.2252428,193.922661 34.8114389,193.654866 33.4573529,193.186217 C32.1032669,192.717568 30.8587212,192.115028 29.7236785,191.37858 C28.5886358,190.642131 27.642781,189.894536 26.8860859,189.135771 C25.2532174,187.439708 24.1580172,185.598614 23.6004524,183.612435 C23.0428876,181.626256 22.8736293,179.595474 23.0926727,177.520029 C23.311716,175.444583 23.8593161,173.391485 24.7354894,171.360673 C25.6116627,169.32986 26.6769939,167.41066 27.9315147,165.603014 C29.1860356,163.795367 30.5500577,162.143962 32.0236219,160.648749 C33.4971861,159.153535 34.9508155,157.937298 36.3845537,157 C36.62351,157.669499 36.812681,158.405936 36.9520722,159.209334 C37.0914634,160.012733 37.2208961,160.838435 37.3403743,161.686467 L37.6988071,164.230548 C37.8182852,165.07858 37.9775871,165.881966 38.1767174,166.640731 C37.2208919,167.04243 36.2650808,167.555705 35.3092554,168.18057 C34.35343,168.805436 33.4772698,169.530715 32.6807486,170.35643 C31.8842274,171.182145 31.2071946,172.119429 30.6496297,173.16831 C30.0920649,174.217191 29.7336357,175.366479 29.5743315,176.61621 C29.3752012,178.089107 29.4050703,179.461558 29.6639397,180.733606 C29.9228091,182.005653 30.3608891,183.154942 30.9781931,184.181506 C31.595497,185.208071 32.3422244,186.11188 33.2183977,186.892962 C34.094571,187.674043 35.0503821,188.310058 36.0858597,188.801023 C35.9265555,188.310058 35.66769,187.852574 35.3092554,187.428558 C34.9508209,187.004542 34.5824354,186.569375 34.2040878,186.123042 C33.8257402,185.67671 33.4772674,185.19691 33.1586589,184.683628 C32.8400505,184.170345 32.6409232,183.578964 32.561271,182.909465 C32.1231844,180.365371 32.5015263,178.289956 33.6963081,176.68316 C34.8910899,175.076363 36.6832357,174.272977 39.0727992,174.272977 C39.0736301,174.278987 39.074461,174.284997 39.075292,174.291007 C39.0502536,174.298508 39.0251563,174.306154 39,174.313944 C39.1130718,174.911157 39.2227816,175.511018 39.3291296,176.113528 C39.6887265,178.676752 40.061278,181.254479 40.4467914,183.846758 C40.5260821,184.379927 40.6064688,184.910637 40.6879517,185.438889 C40.9924898,187.959261 41.2665534,190.479616 41.5101479,193 C41.6584525,192.980515 41.803745,192.95549 41.9460253,192.924924 Z M47.0137435,138.304043 C46.540186,140.891479 45.8199949,143.257732 44.8531485,145.402871 C43.8863021,147.548011 42.7418887,149.460916 41.4198742,151.141643 C40.0978597,152.822371 38.7265369,154.281929 37.3058646,155.52036 C37.4637171,157.378006 37.6708953,159.125053 37.9274056,160.761551 C38.1839159,162.398049 38.4700192,164.056637 38.7857242,165.737365 C40.8378064,165.560446 42.6925452,165.814763 44.3499962,166.500323 C46.0074472,167.185883 47.4182326,168.181036 48.5823946,169.485812 C49.7465567,170.790587 50.6245979,172.360717 51.2165447,174.196249 C51.8084915,176.031781 52.0649979,178.033144 51.9860717,180.200398 C51.9071455,182.013815 51.5914452,183.628174 51.0389616,185.043524 C50.4864779,186.458873 49.7958836,187.730458 48.9671581,188.858315 C48.1384326,189.986171 47.2011976,190.992382 46.1554249,191.876975 C45.1096522,192.761569 44.0342984,193.579806 42.929331,194.33171 C42.8504048,195.968208 42.9490611,197.505167 43.2253029,198.942631 C43.5015448,200.380096 43.7679168,201.77331 44.0244271,203.122315 C44.2809374,204.47132 44.4585188,205.820305 44.5571766,207.169311 C44.6558344,208.518316 44.4881186,209.944702 44.0540243,211.448511 C43.6988562,212.642712 43.1167839,213.682094 42.30779,214.566688 C41.498796,215.451281 40.561561,216.170003 39.4960568,216.722874 C38.4305525,217.275745 37.2762736,217.651691 36.0331853,217.850725 C34.7900971,218.049758 33.5766243,218.049758 32.3927308,217.850725 C31.2088372,217.651691 30.0940208,217.275745 29.0482481,216.722874 C28.0024754,216.170003 27.1244342,215.384938 26.414098,214.367655 C25.6248356,213.217683 25.1907478,211.957156 25.1118216,210.586036 C25.0328954,209.214916 25.2203424,207.943332 25.6741682,206.771245 C26.1279941,205.599159 26.8087227,204.637178 27.7163745,203.885273 C28.6240262,203.133369 29.6697832,202.801651 30.8536768,202.89011 C31.919181,202.93434 32.7873566,203.243943 33.4582297,203.818929 C34.1291027,204.393915 34.6223843,205.101579 34.9380893,205.941943 C35.2537942,206.782307 35.3721818,207.689002 35.2932556,208.662055 C35.2143293,209.635108 34.9775541,210.530745 34.5829229,211.348994 C34.1882918,212.167243 33.6259507,212.86385 32.895883,213.438836 C32.1658153,214.013822 31.2877741,214.323425 30.261733,214.367655 C31.2088478,215.517627 32.303933,216.225291 33.5470212,216.490669 C34.7901095,216.756047 36.0134479,216.711818 37.217073,216.357981 C38.4206982,216.004143 39.5059177,215.384937 40.4727641,214.500343 C41.4396105,213.61575 42.1400704,212.598482 42.5741647,211.448511 C43.008259,210.21008 43.2055717,208.905324 43.1661086,207.534204 C43.1266454,206.163083 42.9983922,204.758812 42.7813451,203.321348 C42.5642979,201.883883 42.3275227,200.424325 42.0710125,198.942631 C41.8145022,197.460937 41.686249,196.034551 41.686249,194.663431 C38.41081,195.061498 35.3228672,194.796124 32.422328,193.867301 C29.5217887,192.938477 27.0257838,191.445748 24.9342384,189.389068 C22.8426931,187.332388 21.264192,184.767105 20.1986878,181.693142 C19.1331835,178.619179 18.7780208,175.158259 19.1331889,171.310277 C19.3699676,168.568037 20.0506962,166.046983 21.1753951,163.747039 C22.300094,161.447096 23.6319543,159.313046 25.171016,157.344825 C26.7100776,155.376604 28.3280413,153.596386 30.0249554,152.004118 C31.7218696,150.411849 33.2806394,148.952292 34.7013117,147.625402 C34.1093649,144.883161 33.8035303,142.019333 33.7837988,139.033829 C33.7640672,136.048326 34.010708,133.206611 34.5237286,130.508601 C35.0367491,127.81059 35.8062684,125.377995 36.8323095,123.21074 C37.8583506,121.043486 39.1014203,119.429127 40.5615557,118.367614 C41.3508181,117.792629 42.1400686,117.892144 42.929331,118.666163 C43.7185934,119.440183 44.4190533,120.512736 45.0307316,121.883856 C45.64241,123.254977 46.1554228,124.703477 46.5697856,126.229401 C46.9841484,127.755325 47.2307892,128.960565 47.3097154,129.845159 C47.5859572,132.897007 47.4873009,135.716607 47.0137435,138.304043 Z M36.1538176,146 C36.8776687,145.559792 37.7020423,144.921501 38.6269632,144.085106 C39.551884,143.248712 40.476791,142.28027 41.4017118,141.179751 C42.3266327,140.079232 43.1711129,138.890689 43.935178,137.614087 C44.699243,136.337485 45.2622299,135.027887 45.6241554,133.685254 C45.986081,132.34262 46.0866143,131.022017 45.9257585,129.723405 C45.7649027,128.424792 45.2019159,127.203235 44.2367811,126.058695 C42.9499347,125.882612 41.8340143,126.102712 40.8889865,126.719003 C39.9439587,127.335294 39.1597985,128.204691 38.5364822,129.32722 C37.913166,130.449749 37.4205525,131.748342 37.058627,133.223038 C36.6967014,134.697733 36.4252613,136.194417 36.2442986,137.713133 C36.0633358,139.231849 35.9829091,140.717528 36.0030161,142.170213 C36.0231231,143.622898 36.0733897,144.899481 36.1538176,146 Z M41.9460253,192.924924 C41.5010653,190.486947 41.0817101,187.991618 40.6879517,185.438889 C40.6121063,184.811189 40.5343707,184.183487 40.4547448,183.555784 C40.1345513,181.03165 39.7593488,178.550914 39.3291296,176.113528 C39.2437875,175.505204 39.1591749,174.897698 39.075292,174.291007 C40.6401408,173.822223 41.974694,173.919813 43.0789903,174.583779 C44.200956,175.258369 45.0852038,176.258997 45.7317603,177.585691 C46.3783167,178.912385 46.7776545,180.43019 46.9297854,182.139152 C47.0819163,183.848114 46.9868359,185.478349 46.6445413,187.029906 C46.3022467,188.581464 45.7032401,189.919381 44.8475036,191.043698 C44.0844575,192.046233 43.1173059,192.673304 41.9460253,192.924924 Z" id="treble-clef" fill="#000000" sketch:type="MSShapeGroup"></path>
        </g>
    </g>
</svg>